<svg width="32" height="31" viewBox="0 0 32 31" fill="none" xmlns="http://www.w3.org/2000/svg">
<path fill-rule="evenodd" clip-rule="evenodd" d="M7.81722 31C7.59227 31 7.38606 30.7966 7.38606 30.5563V26.3968H0.468658C0.20621 26.3968 0 26.1935 0 25.9346V5.11857C0 4.85976 0.20621 4.67489 0.468658 4.67489H7.31107V0.459917C7.31107 0.0347224 7.87346 -0.131658 8.15466 0.21959L9.7106 2.54892L11.304 0.201103C11.4728 -0.076198 11.8852 -0.0577113 12.0726 0.201103L13.6661 2.54892L15.222 0.201103C15.3907 -0.076198 15.8032 -0.0577113 16.0094 0.201103L17.6216 2.58589L19.3087 0.27505C19.4774 0.0532091 19.8711 0.0532091 20.0211 0.27505L21.7083 2.58589L23.3204 0.201103C23.5079 -0.076198 23.9203 -0.0577113 24.1078 0.201103L25.6637 2.54892L27.2384 0.201103C27.4259 -0.076198 27.8383 -0.0577113 28.0258 0.201103L29.5817 2.54892L31.1752 0.201103C31.4001 -0.150145 32 -0.00225111 32 0.459917V30.5009C32 30.9445 31.4376 31.1109 31.1752 30.7597L29.5817 28.3934L28.0258 30.7597C27.8571 31.037 27.4446 31.0185 27.2384 30.7597L25.6637 28.3934L24.1078 30.7597C23.9203 31.037 23.5267 31.0185 23.3204 30.7597L21.7458 28.3934L20.0586 30.7782C19.8899 31.037 19.4962 31 19.3275 30.7782L17.6403 28.3934L16.0469 30.7597C15.8781 31.0185 15.4657 31.0185 15.2783 30.7597L13.7223 28.3934L12.1289 30.7597C11.9602 31.037 11.5477 31.0185 11.3603 30.7597L9.76684 28.3934L8.2109 30.7597C8.11716 30.9261 7.98594 31 7.81722 31ZM29.1131 24.9918H17.5653C16.9654 24.9918 16.9654 24.0675 17.5653 24.0675H29.1131C29.7129 24.0675 29.7129 24.9918 29.1131 24.9918ZM29.1131 21.923H17.5653C16.9654 21.923 16.9654 20.9987 17.5653 20.9987H29.1131C29.7129 20.9987 29.7129 21.923 29.1131 21.923ZM29.1131 18.8172H17.5653C16.9654 18.8172 16.9654 17.8929 17.5653 17.8929H29.1131C29.7129 17.8929 29.7129 18.8172 29.1131 18.8172ZM29.1131 15.7115H17.5653C16.9654 15.7115 16.9654 14.8056 17.5653 14.8056H29.1131C29.7129 14.8056 29.7129 15.7115 29.1131 15.7115ZM29.1131 12.6242H17.5653C16.9654 12.6242 16.9654 11.6999 17.5653 11.6999H29.1131C29.7129 11.6999 29.7129 12.6242 29.1131 12.6242ZM29.1131 9.55539H17.5653C16.9654 9.55539 16.9654 8.63105 17.5653 8.63105H29.1131C29.7129 8.63105 29.7129 9.55539 29.1131 9.55539ZM29.1131 6.44962H17.5653C16.9654 6.44962 16.9654 5.52528 17.5653 5.52528H29.1131C29.7129 5.52528 29.7129 6.44962 29.1131 6.44962ZM8.13591 11.4595C7.27358 11.4595 6.54247 10.7755 6.54247 9.90664C6.54247 9.05625 7.25483 8.33527 8.13591 8.33527C8.99824 8.33527 9.69186 9.03776 9.69186 9.90664C9.69186 10.7755 8.99824 11.4595 8.13591 11.4595ZM8.13591 9.24112C7.25483 9.24112 7.25483 10.5722 8.13591 10.5722C8.99824 10.5722 8.9795 9.24112 8.13591 9.24112ZM8.13591 22.7179C7.27358 22.7179 6.54247 22.0154 6.54247 21.1466C6.54247 20.2777 7.25483 19.5937 8.13591 19.5937C8.99824 19.5937 9.69186 20.2777 9.69186 21.1466C9.69186 22.0154 8.99824 22.7179 8.13591 22.7179ZM8.13591 20.4995C7.25483 20.4995 7.25483 21.8491 8.13591 21.8491C8.99824 21.8491 8.99824 20.4995 8.13591 20.4995ZM7.81722 18.1332C6.37375 18.1332 5.17399 16.9501 5.17399 15.5081C5.17399 14.0846 6.37375 12.9015 7.81722 12.9015C9.27944 12.9015 10.4792 14.0846 10.4792 15.5081C10.4792 16.9501 9.27944 18.1332 7.81722 18.1332ZM7.81722 13.8258C6.86116 13.8258 6.07381 14.5838 6.07381 15.5451C6.07381 16.4879 6.86116 17.2644 7.81722 17.2644C8.79203 17.2644 9.56063 16.4879 9.56063 15.5451C9.56063 14.5838 8.79203 13.8258 7.81722 13.8258ZM11.2291 24.2523H4.44288C4.18043 24.2523 3.97422 24.049 3.97422 23.7902C3.97422 23.4389 3.65554 23.0692 3.28061 23.1431C2.98067 23.1986 2.69947 23.0322 2.69947 22.7179V8.33527C2.69947 8.09494 2.90568 7.89158 3.16813 7.89158C3.54306 7.89158 3.82425 7.5958 3.82425 7.24455C3.82425 6.98573 4.03046 6.78238 4.29291 6.78238H11.3228C11.5852 6.78238 11.7914 6.98573 11.7914 7.24455C11.7914 7.5958 12.0726 7.89158 12.4476 7.89158C12.71 7.89158 12.9162 8.09494 12.9162 8.33527V22.7179C12.9162 22.8658 12.8412 23.0137 12.71 23.0877C12.5975 23.1801 12.4663 23.1801 12.3351 23.1431C11.9977 23.1801 11.7165 23.4574 11.7165 23.7902C11.6602 24.049 11.4915 24.2523 11.2291 24.2523ZM4.83656 23.3465H10.8354C10.9854 22.8104 11.4353 22.4037 11.9789 22.2743V8.705C11.4915 8.55711 11.0978 8.16889 10.9479 7.66974H4.68658C4.51787 8.16889 4.14294 8.55711 3.63679 8.705V22.2743C4.21793 22.4037 4.68658 22.8104 4.83656 23.3465ZM14.6784 25.5094V5.54377H0.937317V25.5094H14.6784ZM8.32337 26.3968V29.0589L9.42941 27.3951C9.61687 27.1178 10.0105 27.1363 10.2168 27.3951L11.7914 29.7614L13.3849 27.3951C13.5536 27.1178 13.966 27.1363 14.1535 27.3951L15.7094 29.7614L17.3029 27.3951C17.4716 27.1178 17.8653 27.1363 18.0527 27.3766L19.7774 29.7614L21.4833 27.3766C21.652 27.0993 22.0644 27.1363 22.2332 27.3951L23.8266 29.7614L25.3825 27.3951C25.5513 27.1178 25.9637 27.1363 26.1511 27.3951L27.7446 29.7614L29.3005 27.3951C29.4692 27.1178 29.8817 27.1363 30.0691 27.3951L31.2127 29.0589V1.99432L30.0691 3.65812C29.9004 3.93542 29.488 3.91694 29.3005 3.65812L27.7446 1.31031L26.0199 3.65812C25.8512 3.91694 25.4388 3.93542 25.2701 3.65812L23.7141 1.31031L22.1394 3.65812C21.952 3.91694 21.577 3.91694 21.3708 3.67661L19.6649 1.34728L17.9777 3.67661C17.809 3.93542 17.3779 3.91694 17.2279 3.65812L15.6344 1.32879L14.0785 3.67661C13.9098 3.95391 13.4974 3.93542 13.3099 3.67661L11.7165 1.32879L10.1418 3.67661C9.95431 3.95391 9.54189 3.95391 9.35442 3.67661L8.22964 2.0128V4.67489H15.1283C15.372 4.67489 15.597 4.87825 15.597 5.11857V25.9346C15.597 26.1935 15.372 26.3968 15.1283 26.3968H8.32337Z" fill="#333E96"/>
<path fill-rule="evenodd" clip-rule="evenodd" d="M15.5968 5.11857V25.9346C15.5968 26.1934 15.3718 26.3968 15.1281 26.3968H8.32322V29.0589L9.42926 27.3951C9.61672 27.1178 10.0104 27.1363 10.2166 27.3951L11.7913 29.7614L13.3847 27.3951C13.5535 27.1178 13.9659 27.1363 14.1533 27.3951L15.7093 29.7614L17.3027 27.3951C17.4714 27.1178 17.8651 27.1363 18.0526 27.3766L19.7772 29.7614L21.4832 27.3766C21.6519 27.0993 22.0643 27.1363 22.233 27.3951L23.8264 29.7614L25.3824 27.3951C25.5511 27.1178 25.9635 27.1363 26.151 27.3951L27.7444 29.7614L29.3004 27.3951C29.4691 27.1178 29.8815 27.1363 30.069 27.3951L31.2125 29.0589V1.99431L30.069 3.65812C29.9003 3.93542 29.4878 3.91693 29.3004 3.65812L27.7444 1.3103L26.0198 3.65812C25.851 3.91693 25.4386 3.93542 25.2699 3.65812L23.714 1.3103L22.1393 3.65812C21.9518 3.91693 21.5769 3.91693 21.3707 3.6766L19.6648 1.34728L17.9776 3.6766C17.8089 3.93542 17.3777 3.91693 17.2277 3.65812L15.6343 1.32879L14.0783 3.6766C13.9096 3.95391 13.4972 3.93542 13.3097 3.6766L11.7163 1.32879L10.1416 3.6766C9.95416 3.95391 9.54174 3.95391 9.35427 3.6766L8.22949 2.0128V4.67489H15.1281C15.3718 4.67489 15.5968 4.87824 15.5968 5.11857ZM17.5652 11.6998H29.1129C29.7128 11.6998 29.7128 12.6242 29.1129 12.6242H17.5652C16.9653 12.6242 16.9653 11.6998 17.5652 11.6998ZM17.5652 14.8056H29.1129C29.7128 14.8056 29.7128 15.7115 29.1129 15.7115H17.5652C16.9653 15.7115 16.9653 14.8056 17.5652 14.8056ZM17.5652 17.8929H29.1129C29.7128 17.8929 29.7128 18.8172 29.1129 18.8172H17.5652C16.9653 18.8172 16.9653 17.8929 17.5652 17.8929ZM17.5652 20.9987H29.1129C29.7128 20.9987 29.7128 21.923 29.1129 21.923H17.5652C16.9653 21.923 16.9653 20.9987 17.5652 20.9987ZM17.5652 24.0675H29.1129C29.7128 24.0675 29.7128 24.9918 29.1129 24.9918H17.5652C16.9653 24.9918 16.9653 24.0675 17.5652 24.0675ZM17.5652 9.55539C16.9653 9.55539 16.9653 8.63105 17.5652 8.63105H29.1129C29.7128 8.63105 29.7128 9.55539 29.1129 9.55539H17.5652ZM29.1129 6.44962H17.5652C16.9653 6.44962 16.9653 5.52528 17.5652 5.52528H29.1129C29.7128 5.52528 29.7128 6.44962 29.1129 6.44962Z" fill="#F7F7F7"/>
<path fill-rule="evenodd" clip-rule="evenodd" d="M14.6786 25.5094V5.54376H0.9375V25.5094H14.6786ZM12.9164 8.33526V22.7179C12.9164 22.8658 12.8414 23.0137 12.7102 23.0877C12.5977 23.1801 12.4665 23.1801 12.3353 23.1431C11.9978 23.1801 11.7166 23.4574 11.7166 23.7902C11.6604 24.049 11.4917 24.2523 11.2292 24.2523H4.44307C4.18062 24.2523 3.97441 24.049 3.97441 23.7902C3.97441 23.4389 3.65572 23.0692 3.28079 23.1431C2.98085 23.1986 2.69966 23.0322 2.69966 22.7179V8.33526C2.69966 8.09493 2.90587 7.89158 3.16831 7.89158C3.54324 7.89158 3.82444 7.59579 3.82444 7.24454C3.82444 6.98573 4.03065 6.78237 4.29309 6.78237H11.323C11.5854 6.78237 11.7916 6.98573 11.7916 7.24454C11.7916 7.59579 12.0728 7.89158 12.4478 7.89158C12.7102 7.89158 12.9164 8.09493 12.9164 8.33526Z" fill="#378B4E"/>
<path fill-rule="evenodd" clip-rule="evenodd" d="M11.9788 22.2743V8.705C11.4914 8.5571 11.0978 8.16888 10.9478 7.66974H4.68651C4.5178 8.16888 4.14287 8.5571 3.63672 8.705V22.2743C4.21786 22.4037 4.68651 22.8104 4.83648 23.3465H10.8353C10.9853 22.8104 11.4352 22.4037 11.9788 22.2743ZM9.69179 9.90663C9.69179 10.7755 8.99817 11.4595 8.13584 11.4595C7.27351 11.4595 6.5424 10.7755 6.5424 9.90663C6.5424 9.05624 7.25476 8.33526 8.13584 8.33526C8.99817 8.33526 9.69179 9.03776 9.69179 9.90663ZM7.81715 12.9015C9.27937 12.9015 10.4791 14.0846 10.4791 15.5081C10.4791 16.9501 9.27937 18.1332 7.81715 18.1332C6.37368 18.1332 5.17392 16.9501 5.17392 15.5081C5.17392 14.0846 6.37368 12.9015 7.81715 12.9015ZM6.5424 21.1466C6.5424 20.2777 7.25476 19.5937 8.13584 19.5937C8.99817 19.5937 9.69179 20.2777 9.69179 21.1466C9.69179 22.0154 8.99817 22.7179 8.13584 22.7179C7.27351 22.7179 6.5424 22.0154 6.5424 21.1466Z" fill="#7ED63F"/>
<path fill-rule="evenodd" clip-rule="evenodd" d="M8.13591 10.5722C8.99824 10.5722 8.97949 9.24112 8.13591 9.24112C7.25483 9.24112 7.25483 10.5722 8.13591 10.5722Z" fill="#378B4E"/>
<path fill-rule="evenodd" clip-rule="evenodd" d="M9.56055 15.5451C9.56055 14.5838 8.79195 13.8258 7.81714 13.8258C6.86108 13.8258 6.07373 14.5838 6.07373 15.5451C6.07373 16.4879 6.86108 17.2644 7.81714 17.2644C8.79195 17.2644 9.56055 16.4879 9.56055 15.5451Z" fill="#378B4E"/>
<path fill-rule="evenodd" clip-rule="evenodd" d="M8.13591 21.8491C8.99824 21.8491 8.99824 20.4995 8.13591 20.4995C7.25483 20.4995 7.25483 21.8491 8.13591 21.8491Z" fill="#378B4E"/>
</svg>
