<svg width="20" height="21" viewBox="0 0 20 21" fill="none" xmlns="http://www.w3.org/2000/svg">
<path d="M7 20V12.6C7 12.0399 7 11.7599 7.10899 11.546C7.20487 11.3578 7.35785 11.2049 7.54601 11.109C7.75992 11 8.03995 11 8.6 11H11.4C11.9601 11 12.2401 11 12.454 11.109C12.6422 11.2049 12.7951 11.3578 12.891 11.546C13 11.7599 13 12.0399 13 12.6V20M9.0177 1.76401L2.23539 7.03914C1.78202 7.39176 1.55534 7.56807 1.39203 7.78887C1.24737 7.98446 1.1396 8.2048 1.07403 8.43907C1 8.70353 1 8.99071 1 9.56507V16.8C1 17.9201 1 18.4802 1.21799 18.908C1.40973 19.2843 1.71569 19.5903 2.09202 19.782C2.51984 20 3.07989 20 4.2 20H15.8C16.9201 20 17.4802 20 17.908 19.782C18.2843 19.5903 18.5903 19.2843 18.782 18.908C19 18.4802 19 17.9201 19 16.8V9.56507C19 8.99071 19 8.70353 18.926 8.43907C18.8604 8.2048 18.7526 7.98446 18.608 7.78887C18.4447 7.56807 18.218 7.39176 17.7646 7.03914L10.9823 1.76401C10.631 1.49076 10.4553 1.35413 10.2613 1.30162C10.0902 1.25528 9.9098 1.25528 9.73865 1.30162C9.54468 1.35413 9.36902 1.49076 9.0177 1.76401Z" stroke="#333E96" stroke-width="1.5" stroke-linecap="round" stroke-linejoin="round"/>
</svg>
