<svg width="36" height="36" viewBox="0 0 36 36" fill="none" xmlns="http://www.w3.org/2000/svg">
<path d="M24.75 0H11.25C9.17892 0 7.5 1.67892 7.5 3.74998V32.25C7.5 34.3211 9.17892 36 11.25 36H24.75C26.8211 36 28.5 34.3211 28.5 32.25V3.74998C28.5 1.67892 26.8211 0 24.75 0Z" fill="#1A1A1A"/>
<path d="M10.5 32.25V3.74998C10.5011 2.75576 10.8965 1.80258 11.5996 1.09957C12.3026 0.396559 13.2558 0.00111658 14.25 0L11.25 0C10.2558 0.00113519 9.30261 0.396585 8.5996 1.0996C7.89659 1.80261 7.50114 2.75577 7.5 3.74998V32.25C7.50114 33.2442 7.89659 34.1974 8.5996 34.9004C9.30261 35.6034 10.2558 35.9989 11.25 36H14.25C13.2558 35.9989 12.3026 35.6034 11.5996 34.9004C10.8965 34.1974 10.5011 33.2442 10.5 32.25Z" fill="#F7F7F7" fill-opacity="0.1"/>
<path d="M18 34.125C18.5177 34.125 18.9375 33.7053 18.9375 33.1875C18.9375 32.6698 18.5177 32.25 18 32.25C17.4822 32.25 17.0625 32.6698 17.0625 33.1875C17.0625 33.7053 17.4822 34.125 18 34.125Z" fill="#EAEFF0"/>
<path d="M26.25 5.25003H9.75002C9.3358 5.25003 9 5.58583 9 6.00005V29.25C9 29.6642 9.3358 30 9.75002 30H26.25C26.6642 30 27 29.6642 27 29.25V6.00005C27 5.58583 26.6642 5.25003 26.25 5.25003Z" fill="#EAEFF0"/>
<path d="M9.75002 5.25003C9.55112 5.25003 9.36036 5.32904 9.2197 5.46968C9.07905 5.61032 9.00002 5.80108 9 5.99998V29.25C9 29.4489 9.07902 29.6397 9.21968 29.7804C9.36033 29.921 9.55111 30 9.75002 30H10.5V5.25003H9.75002Z" fill="#D9E1E2"/>
<path d="M30 12H16.5C15.2574 12 14.25 13.0074 14.25 14.25V22.5C14.25 23.7426 15.2574 24.75 16.5 24.75H30C31.2426 24.75 32.25 23.7426 32.25 22.5V14.25C32.25 13.0074 31.2426 12 30 12Z" fill="#333E96"/>
<path d="M16.5 22.5V14.25C16.5007 13.6535 16.7379 13.0816 17.1597 12.6598C17.5815 12.2379 18.1535 12.0007 18.75 12H16.5C15.9035 12.0007 15.3315 12.2379 14.9097 12.6598C14.4879 13.0816 14.2507 13.6535 14.25 14.25V22.5C14.2507 23.0965 14.4879 23.6685 14.9097 24.0903C15.3315 24.5121 15.9035 24.7494 16.5 24.75H18.75C18.1535 24.7494 17.5815 24.5121 17.1597 24.0903C16.7379 23.6685 16.5007 23.0965 16.5 22.5Z" fill="#1A1A1A"/>
<path d="M32.25 15H14.25V16.4999H32.25V15Z" fill="#2D4A60"/>
<path d="M16.5 15H14.25V16.4999H16.5V15Z" fill="#263F52"/>
<path d="M19.5001 22.5H17.2501C17.0524 22.4981 16.8635 22.4182 16.7244 22.2778C16.5854 22.1374 16.5073 21.9477 16.5073 21.75C16.5073 21.5524 16.5854 21.3627 16.7244 21.2223C16.8635 21.0818 17.0524 21.0019 17.2501 21H19.5001C19.5992 20.9991 19.6975 21.0178 19.7893 21.055C19.8812 21.0923 19.9647 21.1474 20.0351 21.2171C20.1055 21.2869 20.1614 21.3699 20.1996 21.4613C20.2377 21.5528 20.2574 21.6509 20.2574 21.75C20.2574 21.8491 20.2377 21.9473 20.1996 22.0387C20.1614 22.1302 20.1055 22.2132 20.0351 22.2829C19.9647 22.3527 19.8812 22.4078 19.7893 22.445C19.6975 22.4823 19.5992 22.501 19.5001 22.5Z" fill="#F9DB6D"/>
</svg>
