<svg width="24" height="24" viewBox="0 0 24 24" fill="none" xmlns="http://www.w3.org/2000/svg">
<path d="M21 3.75V7.5C21 7.69891 20.921 7.88968 20.7803 8.03033C20.6397 8.17098 20.4489 8.25 20.25 8.25C20.0511 8.25 19.8603 8.17098 19.7197 8.03033C19.579 7.88968 19.5 7.69891 19.5 7.5V4.5H16.5C16.3011 4.5 16.1103 4.42098 15.9697 4.28033C15.829 4.13968 15.75 3.94891 15.75 3.75C15.75 3.55109 15.829 3.36032 15.9697 3.21967C16.1103 3.07902 16.3011 3 16.5 3H20.25C20.4489 3 20.6397 3.07902 20.7803 3.21967C20.921 3.36032 21 3.55109 21 3.75ZM7.5 19.5H4.5V16.5C4.5 16.3011 4.42098 16.1103 4.28033 15.9697C4.13968 15.829 3.94891 15.75 3.75 15.75C3.55109 15.75 3.36032 15.829 3.21967 15.9697C3.07902 16.1103 3 16.3011 3 16.5V20.25C3 20.4489 3.07902 20.6397 3.21967 20.7803C3.36032 20.921 3.55109 21 3.75 21H7.5C7.69891 21 7.88968 20.921 8.03033 20.7803C8.17098 20.6397 8.25 20.4489 8.25 20.25C8.25 20.0511 8.17098 19.8603 8.03033 19.7197C7.88968 19.579 7.69891 19.5 7.5 19.5ZM20.25 15.75C20.0511 15.75 19.8603 15.829 19.7197 15.9697C19.579 16.1103 19.5 16.3011 19.5 16.5V19.5H16.5C16.3011 19.5 16.1103 19.579 15.9697 19.7197C15.829 19.8603 15.75 20.0511 15.75 20.25C15.75 20.4489 15.829 20.6397 15.9697 20.7803C16.1103 20.921 16.3011 21 16.5 21H20.25C20.4489 21 20.6397 20.921 20.7803 20.7803C20.921 20.6397 21 20.4489 21 20.25V16.5C21 16.3011 20.921 16.1103 20.7803 15.9697C20.6397 15.829 20.4489 15.75 20.25 15.75ZM3.75 8.25C3.94891 8.25 4.13968 8.17098 4.28033 8.03033C4.42098 7.88968 4.5 7.69891 4.5 7.5V4.5H7.5C7.69891 4.5 7.88968 4.42098 8.03033 4.28033C8.17098 4.13968 8.25 3.94891 8.25 3.75C8.25 3.55109 8.17098 3.36032 8.03033 3.21967C7.88968 3.07902 7.69891 3 7.5 3H3.75C3.55109 3 3.36032 3.07902 3.21967 3.21967C3.07902 3.36032 3 3.55109 3 3.75V7.5C3 7.69891 3.07902 7.88968 3.21967 8.03033C3.36032 8.17098 3.55109 8.25 3.75 8.25ZM15.75 17.25H8.25C7.85218 17.25 7.47064 17.092 7.18934 16.8107C6.90804 16.5294 6.75 16.1478 6.75 15.75V8.25C6.75 7.85218 6.90804 7.47064 7.18934 7.18934C7.47064 6.90804 7.85218 6.75 8.25 6.75H15.75C16.1478 6.75 16.5294 6.90804 16.8107 7.18934C17.092 7.47064 17.25 7.85218 17.25 8.25V15.75C17.25 16.1478 17.092 16.5294 16.8107 16.8107C16.5294 17.092 16.1478 17.25 15.75 17.25ZM8.25 15.75H15.75V8.25H8.25V15.75Z" fill="#F7F7F7"/>
</svg>
