<svg width="41" height="39" viewBox="0 0 41 39" fill="none" xmlns="http://www.w3.org/2000/svg">
<path d="M32.5678 10.7646L9.25267 9.81277C8.19154 9.77075 7.24636 10.3762 6.84318 11.3583C6.4419 12.3419 6.69514 13.4274 7.48936 14.1272L15.5272 21.2047C15.6361 21.3012 15.7007 21.4345 15.7091 21.5797L16.2924 32.2817C16.3505 33.3363 17.0467 34.208 18.0647 34.5008C18.6731 34.6748 19.296 34.6154 19.8322 34.3553C20.1945 34.1796 20.515 33.9127 20.7672 33.5665L34.4564 14.658C34.9912 13.92 35.0771 12.9579 34.6821 12.1438C34.2872 11.3296 33.4784 10.8015 32.5678 10.7646ZM32.8935 13.5397L19.2028 32.4478C18.9996 32.73 18.7206 32.6864 18.6094 32.6539C18.4986 32.6223 18.2384 32.5116 18.2201 32.1663L17.637 21.4796L22.9886 18.8836C23.4687 18.6507 23.6706 18.0753 23.4394 17.5987C23.2082 17.1221 22.6314 16.9246 22.1512 17.1575L16.7997 19.7535L8.77367 12.6856C8.51288 12.4556 8.58652 12.1818 8.63082 12.0738C8.6607 12.0001 8.7357 11.8594 8.89222 11.7835C8.96372 11.7488 9.05371 11.7277 9.163 11.7315L32.4791 12.6829C32.7714 12.6951 32.9012 12.8987 32.9436 12.986C32.9859 13.0732 33.0649 13.3026 32.8935 13.5397Z" fill="#333E96"/>
<path d="M4.5018 21.0325L7.79156 19.4366C8.27174 19.2037 8.47363 18.6283 8.24243 18.1517C8.01124 17.6751 7.43441 17.4776 6.95423 17.7105L3.66446 19.3063C3.18428 19.5393 2.98239 20.1146 3.21359 20.5912C3.44479 21.0678 4.02162 21.2654 4.5018 21.0325Z" fill="#1A1A1A"/>
<path d="M8.02316 25.0761C8.25436 25.5527 8.83119 25.7503 9.31137 25.5174L12.6002 23.922C13.0803 23.6891 13.2822 23.1137 13.051 22.6371C12.8198 22.1605 12.243 21.9629 11.7628 22.1959L8.47403 23.7913C7.99289 24.0247 7.79196 24.5995 8.02316 25.0761Z" fill="#1A1A1A"/>
<path d="M12.3087 28.7483L9.01896 30.3442C8.53878 30.5771 8.33688 31.1525 8.56808 31.6291C8.79928 32.1057 9.37611 32.3032 9.85629 32.0703L13.1461 30.4744C13.6262 30.2415 13.8281 29.6662 13.5969 29.1896C13.3657 28.713 12.7889 28.5154 12.3087 28.7483Z" fill="#1A1A1A"/>
</svg>
