<svg width="24" height="24" viewBox="0 0 24 24" fill="none" xmlns="http://www.w3.org/2000/svg">
<path d="M23 10H2M11.45 14H6.2M2 8.2L2 15.8C2 16.9201 2 17.4802 2.22889 17.908C2.43022 18.2843 2.75148 18.5903 3.14662 18.782C3.59583 19 4.18389 19 5.36 19L19.64 19C20.8161 19 21.4042 19 21.8534 18.782C22.2485 18.5903 22.5698 18.2843 22.7711 17.908C23 17.4802 23 16.9201 23 15.8V8.2C23 7.0799 23 6.51984 22.7711 6.09202C22.5698 5.7157 22.2485 5.40974 21.8534 5.21799C21.4042 5 20.8161 5 19.64 5L5.36 5C4.18389 5 3.59583 5 3.14662 5.21799C2.75148 5.40973 2.43022 5.71569 2.22889 6.09202C2 6.51984 2 7.07989 2 8.2Z" stroke="#1A1A1A" stroke-width="1.5" stroke-linecap="round" stroke-linejoin="round"/>
</svg>
